<svg
    xmlns="http://www.w3.org/2000/svg">
    <defs>
        <symbol viewBox="0 0 50 50" id="icon-building">
            <path d="M9 0C7.355 0 6 1.355 6 3v47h38V3c0-1.645-1.355-3-3-3zm0 2h32c.555 0 1 .445 1 1v45h-4V36H27v12H8V3c0-.555.445-1 1-1zm3 4v8h11V6zm15 0v8h11V6zM14 8h7v4h-7zm15 0h7v4h-7zm-17 8v8h11v-8zm15 0v8h11v-8zm-13 2h7v4h-7zm15 0h7v4h-7zm-17 8v8h11v-8zm15 0v8h11v-8zm-13 2h7v4h-7zm15 0h7v4h-7zm-17 8v8h11v-8zm2 2h7v4h-7zm15 0h7v10h-7z"/>
        </symbol>
        <symbol viewBox="0 0 50 50" id="icon-cardboard-box">
            <path d="M16.281 6a.987.987 0 00-.437.219L5.625 14.062A.998.998 0 005 15v28c0 .55.45 1 1 1h30.031c.063-.004.125-.016.188-.031.031-.008.062-.02.093-.032.25-.074.465-.242.594-.468l7.875-9.844c.14-.176.219-.398.219-.625V7.187a1 1 0 00-.313-.906.466.466 0 00-.03-.062h-.032a.472.472 0 00-.063-.063h-.03a1.272 1.272 0 00-.157-.093.98.98 0 00-.281-.063H16.28zm.5 2h10.594l-6.75 6H8.937zm13.594 0h11.188l-6 6H23.624zM43 9.438v23.218l-6 7.5V15.438zM7 16h13.625c.191.059.402.059.594 0H35v26H7zm8.813 4c-.551.05-.958.543-.907 1.094.051.55.543.957 1.094.906h10c.36.004.695-.184.879-.496a1.01 1.01 0 000-1.008c-.184-.312-.52-.5-.879-.496H15.812z"/>
        </symbol>
        <symbol viewBox="0 0 50 50" id="icon-commercial">
            <path d="M39.852 2a.993.993 0 00-.727.332c-.387.152-.816.23-1.098.504-.472.45-.875 1-1.308 1.629-.86 1.254-1.824 2.82-3.203 4.37C30.762 11.935 26.453 15 18 15c-.04 0-.074 0-.113.004H7c-2.746 0-4.992 2.25-4.992 4.996v5c0 2.121 1.347 3.934 3.226 4.652a.943.943 0 00.188.164c.328.23 1.2 1.797 1.914 4.372.71 2.578 1.437 6.144 2.27 10.488.16.836.437 1.676 1.085 2.324.649.652 1.614 1 2.754 1h3.336c.922 0 1.758-.18 2.375-.75.621-.566.844-1.406.844-2.25 0-1.758-1.047-2.969-2.207-4.125.184.184-.07-.156-.191-.734-.122-.582-.23-1.422-.32-2.473-.165-1.89-.247-4.55-.266-7.672h.812c.102.016.203.016.305.004h.035c8.488 0 12.758 3.29 15.496 6.633 1.367 1.672 2.324 3.367 3.18 4.715.426.675.82 1.265 1.293 1.75.472.484 1.097.902 1.863.902h.074c.39 0 .785-.207 1.031-.453.243-.25.399-.535.536-.875.28-.68.496-1.625.691-3.094.309-2.308.54-5.973.625-11.578h.496a4.437 4.437 0 004.422-4.027c.05-.121.078-.254.078-.387 0-2.473-1.996-4.586-4.5-4.586h-.496c-.09-6.152-.371-10.16-.75-12.602-.227-1.472-.469-2.421-.773-3.101-.153-.336-.317-.617-.563-.86C40.625 2.2 40.246 2 39.851 2zm-.239 2.148c.176.391.41 1.196.621 2.555C40.656 9.461 41 14.43 41 23c0 8.574-.281 13.55-.652 16.313-.18 1.359-.387 2.156-.547 2.55-.067-.035-.082-.011-.235-.164-.273-.281-.632-.785-1.035-1.422-.808-1.277-1.824-3.082-3.32-4.91-2.902-3.543-7.719-7.125-16.215-7.347V16.977c8.324-.247 13.106-3.54 16.016-6.813 1.511-1.703 2.543-3.383 3.36-4.566.405-.59.76-1.055 1.034-1.317.125-.12.14-.093.207-.133zM7 16.996h10.004v11.008h-.813a1.2 1.2 0 00-.207-.02c-.058.004-.12.008-.175.02H7A2.99 2.99 0 013.992 25v-5A2.99 2.99 0 017 16.996zM42.98 21h.473c1.363 0 2.5 1.195 2.5 2.586 0 1.39-1.078 2.414-2.5 2.414h-.48c.011-.996.027-1.887.027-3 0-.742-.016-1.313-.02-2zM8.008 29.996h7.008c.015 3.16.101 5.86.27 7.84.093 1.102.21 2 .359 2.71.148.712.203 1.212.734 1.743C17.489 43.395 18 43.992 18 45c0 .531-.102.691-.195.777-.094.086-.367.223-1.024.223h-3.336c-.78 0-1.101-.172-1.336-.406-.23-.235-.418-.653-.539-1.293-.832-4.36-1.562-7.95-2.308-10.645-.414-1.488-.782-2.703-1.254-3.66z"/>
        </symbol>
        <symbol viewBox="0 0 50 50" id="icon-open-book">
            <path d="M6 4v35h1c9.734 0 17.55 3.895 17.55 3.895l.45.222.45-.222S33.265 39 43 39h1V4h-1c-9.84 0-17.36 3.621-18 3.938C24.36 7.62 16.84 4 7 4zm2 2.09c8.246.234 14.652 2.957 16 3.566v30.848c-2.129-.918-8.113-3.203-16-3.414zm34 0v31c-7.887.21-13.871 2.496-16 3.414V9.656c1.348-.61 7.754-3.332 16-3.566zM2 9v34h1c12.793 0 21.594 3.914 21.594 3.914l.406.18.406-.18S34.207 43 47 43h1V9h-2v32.07c-12.2.207-20.441 3.64-21 3.883-.559-.242-8.8-3.676-21-3.883V9z"/>
        </symbol>
        <symbol viewBox="0 0 50 50" id="icon-settings-3">
            <path d="M40.094 0a.993.993 0 00-.719.469L37.75 3.156a9.543 9.543 0 00-1.531 0L34.562.5a.997.997 0 00-1.25-.375L30.5 1.313a.999.999 0 00-.594 1.156l.688 3.031c-.383.332-.73.7-1.063 1.094l-3.062-.688a1 1 0 00-1.125.625l-1.157 2.813a.997.997 0 00.375 1.25l2.657 1.656a10.019 10.019 0 000 1.531l-2.625 1.656a.997.997 0 00-.375 1.25l1.187 2.813a.999.999 0 001.125.594l3.063-.688c.332.383.699.73 1.093 1.063L30 23.53a.999.999 0 00.594 1.125l2.843 1.157a.998.998 0 001.22-.375l1.687-2.657a9.923 9.923 0 001.562-.031l1.688 2.656a.998.998 0 001.218.375l2.844-1.187c.442-.2.68-.684.563-1.157l-.75-3.062c.375-.324.738-.68 1.062-1.063l3.094.657a1 1 0 001.156-.625l1.157-2.813a1 1 0 00-.407-1.25l-2.687-1.656c.035-.496.008-.98-.032-1.469l2.657-1.75a.997.997 0 00.406-1.219l-1.219-2.812a.999.999 0 00-1.156-.594l-3.031.75a9.64 9.64 0 00-1.094-1.093l.656-3.063a.999.999 0 00-.593-1.156L40.593.062a.998.998 0 00-.5-.062zm.531 2.25l1.281.531-.593 2.781a.998.998 0 00.374 1 7.833 7.833 0 011.657 1.657.998.998 0 001.062.375l2.75-.688.532 1.282-2.407 1.562a.997.997 0 00-.437 1 7.777 7.777 0 010 2.313 1 1 0 00.468 1l2.438 1.5-.531 1.25-2.782-.594a.996.996 0 00-1.03.406 7.783 7.783 0 01-1.626 1.656c-.32.239-.465.645-.375 1.032l.688 2.78-1.282.532-1.562-2.406a1 1 0 00-1-.469 7.637 7.637 0 01-2.313.031 1 1 0 00-1 .469l-1.53 2.406-1.282-.531.625-2.75a1.002 1.002 0 00-.375-1.031c-.645-.469-1.223-1.004-1.688-1.625a.998.998 0 00-1-.375l-2.75.625-.562-1.313 2.375-1.468a1 1 0 00.469-1 7.929 7.929 0 01-.032-2.376.996.996 0 00-.468-.968l-2.375-1.5.531-1.281 2.719.593c.386.09.793-.054 1.031-.375a8.083 8.083 0 011.656-1.687.998.998 0 00.375-1l-.625-2.75 1.282-.531 1.5 2.374a.997.997 0 001 .438 7.729 7.729 0 012.343 0 1 1 0 001-.469zm-3.656 5.625c-1.985.031-3.867 1.21-4.657 3.156-1.054 2.594.22 5.602 2.813 6.656 2.594 1.055 5.57-.218 6.625-2.812 1.055-2.594-.188-5.57-2.781-6.625a5.144 5.144 0 00-2-.375zM37 9.844c.402-.004.82.09 1.219.25a3.073 3.073 0 011.687 4.031 3.074 3.074 0 01-4.031 1.688 3.073 3.073 0 01-1.688-4.032 3.079 3.079 0 011.657-1.687A3.07 3.07 0 0137 9.844zM14.344 17c-.426.078-.75.418-.813.844l-.625 4.031c-.719.219-1.406.5-2.062.844L7.5 20.344a1 1 0 00-1.281.093l-2.75 2.75a1 1 0 00-.094 1.282l2.344 3.343a12.552 12.552 0 00-.844 2.063l-4.031.688A.996.996 0 000 31.53v3.875a1 1 0 00.813 1l4.03.688c.227.738.516 1.422.876 2.093L3.344 42.5a1 1 0 00.094 1.281l2.75 2.75a1 1 0 001.28.094l3.345-2.344a12.22 12.22 0 002.062.844l.656 4.031a.998.998 0 001 .844h3.875a1 1 0 001-.813l.719-4.093a11.9 11.9 0 002.031-.844l3.375 2.375a1 1 0 001.282-.094l2.75-2.75a1 1 0 00.093-1.281l-2.406-3.375a11.9 11.9 0 00.844-2.031l4.093-.688a1 1 0 00.813-1v-3.875a.996.996 0 00-.844-.968l-4.093-.688c-.22-.7-.477-1.363-.813-2l2.375-3.406a1 1 0 00-.094-1.282l-2.75-2.75a1 1 0 00-1.281-.093l-3.344 2.406a12.22 12.22 0 00-2.062-.844l-.688-4.062a.998.998 0 00-1-.844h-4.062zm1.062 2h2.156l.657 3.75c.062.398.36.719.75.813 1 .25 1.953.636 2.812 1.156.34.207.77.195 1.094-.032l3.094-2.218L27.5 24l-2.188 3.156a.995.995 0 00-.062 1.094c.516.86.906 1.785 1.156 2.781.094.39.414.688.813.75l3.781.625v2.157l-3.781.656a.994.994 0 00-.813.75c-.246.996-.64 1.926-1.156 2.781-.21.352-.188.797.063 1.125l2.218 3.094L26 44.5l-3.125-2.188a1.001 1.001 0 00-1.094-.03c-.851.519-1.812.902-2.812 1.156a1 1 0 00-.719.812L17.562 48h-2.187l-.625-3.75a.993.993 0 00-.75-.781c-1.004-.246-1.95-.668-2.813-1.188a1.004 1.004 0 00-1.062.063L7 44.5l-1.531-1.531 2.187-3.063a.995.995 0 00.032-1.125A10.118 10.118 0 016.53 35.97a.994.994 0 00-.812-.75L2 34.562v-2.187l3.719-.625a1 1 0 00.812-.719 10.385 10.385 0 011.157-2.843c.207-.34.195-.77-.032-1.094L5.5 24l1.531-1.563 3.094 2.22c.324.226.754.238 1.094.03.86-.515 1.808-.878 2.812-1.125a.994.994 0 00.75-.812zm1.094 8.344a6.163 6.163 0 00-6.156 6.156 6.163 6.163 0 006.156 6.156 6.163 6.163 0 006.156-6.156 6.163 6.163 0 00-6.156-6.156zm0 2a4.135 4.135 0 014.156 4.156 4.135 4.135 0 01-4.156 4.156 4.135 4.135 0 01-4.156-4.156 4.135 4.135 0 014.156-4.156z"/>
        </symbol>
        <symbol viewBox="0 0 50 50" id="icon-todo-list">
            <path d="M13.219 5.375l-5.844 7.469-2.719-2.406-1.312 1.5 3.5 3.124.781.688.656-.844 6.5-8.281zM19 10v2h27v-2zm-5.781 9.375l-5.844 7.469-2.719-2.407-1.312 1.5 3.5 3.125.781.688.656-.844 6.5-8.281zM19 24v2h27v-2zm-5.781 9.375l-5.844 7.469-2.719-2.407-1.312 1.5 3.5 3.126.781.687.656-.844 6.5-8.281zM19 38v2h27v-2z"/>
        </symbol>
        <symbol viewBox="0 0 50 50" id="icon-user-male-circle">
            <path d="M25 2.008c-12.69 0-23 10.31-23 23s10.31 23 23 23 23-10.31 23-23-10.31-23-23-23zm0 2c11.61 0 21 9.39 21 21a20.923 20.923 0 01-6.012 14.705c-1.83-1.343-4.06-2.017-5.949-2.69-1.064-.378-2.02-.753-2.719-1.171-.668-.4-1.04-.813-1.236-1.286-.092-1.146-.073-2.07-.066-3.16.12-.12.276-.205.4-.351.292-.345.59-.764.873-1.235.487-.807.84-1.795 1.04-2.797.302-.154.626-.187.872-.502.455-.58.762-1.396.899-2.533.12-1.004-.203-1.694-.62-2.224.449-1.465 1.003-3.795.815-6.205-.104-1.327-.438-2.662-1.24-3.772-.767-1.06-2.011-1.822-3.604-2.098C28.442 8.541 26.835 8 24.914 8H24.896c-4.302.079-7.078 1.86-8.267 4.576-1.13 2.583-.887 5.799-.076 9.147-.436.53-.778 1.233-.655 2.265.137 1.137.444 1.954.899 2.533.246.315.57.348.873.502.198 1.001.552 1.988 1.039 2.795.284.471.58.89.873 1.235.124.146.28.233.4.353.007 1.09.025 2.013-.066 3.16-.196.472-.567.884-1.234 1.286-.698.42-1.653.797-2.715 1.177-1.887.677-4.116 1.355-5.951 2.688A20.923 20.923 0 014 25.007c0-11.609 9.39-21 21-21zm-.078 5.994c1.844.002 3.004.548 3.322 1.105l.244.428.487.067c1.256.174 1.958.662 2.46 1.357.503.695.783 1.666.868 2.756.17 2.18-.454 4.754-.85 5.945l-.252.756.682.414c-.07-.042.32.189.232.92-.106.89-.334 1.343-.486 1.537-.152.194-.218.17-.201.168l-.824.068-.088.823c-.076.706-.473 1.67-.938 2.441a7.75 7.75 0 01-.687.975c-.208.245-.43.397-.346.353l-.535.28V31c0 1.324-.054 2.407.086 3.95l.011.132.047.125c.394 1.06 1.215 1.806 2.139 2.36.924.553 1.983.952 3.076 1.341 1.801.641 3.678 1.272 5.11 2.203A20.913 20.913 0 0125 46.008c-5.134 0-9.829-1.84-13.475-4.893 1.44-.926 3.32-1.559 5.118-2.203 1.092-.391 2.149-.793 3.07-1.348.921-.554 1.74-1.301 2.133-2.357l.047-.125.011-.133c.139-1.54.086-2.624.086-3.949v-.605l-.535-.282c.084.044-.138-.108-.346-.353a7.7 7.7 0 01-.687-.973c-.465-.771-.862-1.736-.938-2.441l-.088-.823-.824-.068c.016.001-.049.026-.2-.168-.153-.194-.38-.647-.487-1.537-.088-.732.307-.965.232-.92l.635-.385-.186-.72c-.86-3.312-.99-6.325-.105-8.348.884-2.02 2.655-3.303 6.46-3.375z"/>
        </symbol>
        <symbol viewBox="0 0 50 50" id="icon-logout">
            <path d="M 3 0 C 1.347656 0 0 1.347656 0 3 L 0 47 C 0 48.652344 1.347656 50 3 50 L 37 50 C 38.652344 50 40 48.652344 40 47 L 40 38.15625 C 39.457031 38.625 38.785156 38.90625 38.0625 38.90625 C 37.261719 38.90625 36.503906 38.566406 35.9375 38 C 34.765625 36.828125 34.765625 34.953125 35.9375 33.78125 L 40 29.6875 L 40 28 L 17 28 C 15.347656 28 14 26.652344 14 25 C 14 23.347656 15.347656 22 17 22 L 40 22 L 40 20.3125 L 35.9375 16.21875 C 35.371094 15.652344 35.0625 14.925781 35.0625 14.125 C 35.0625 13.324219 35.371094 12.566406 35.9375 12 C 36.503906 11.433594 37.261719 11.125 38.0625 11.125 C 38.785156 11.125 39.457031 11.375 40 11.84375 L 40 3 C 40 1.347656 38.652344 0 37 0 Z M 38.0625 13.125 C 37.808594 13.125 37.539063 13.210938 37.34375 13.40625 C 36.953125 13.796875 36.953125 14.421875 37.34375 14.8125 L 46.53125 24 L 17 24 C 16.449219 24 16 24.449219 16 25 C 16 25.550781 16.449219 26 17 26 L 46.53125 26 L 37.34375 35.1875 C 36.953125 35.578125 36.953125 36.203125 37.34375 36.59375 C 37.539063 36.789063 37.804688 36.90625 38.0625 36.90625 C 38.320313 36.90625 38.554688 36.789063 38.75 36.59375 L 50.34375 25 L 38.75 13.40625 C 38.554688 13.210938 38.316406 13.125 38.0625 13.125 Z"/>
        </symbol>
    </defs>
</svg>